# xmcd
#
# Track frame offsets: 
#        150
#        14493
#        33883
#        49227
#        65012
#        80657
#        98018
#
# Disc length: 1528 seconds
#
# Revision: 0
# Processed by: cddbd v1.5.2PL0 Copyright (c) Steve Scherf et al.
# Submitted via: ExactAudioCopy v0.99pb4
#
DISCID=5505f607
DTITLE=Crazy House - Live at FoolPark Studio
DYEAR=2010
DGENRE=Pop
TTITLE0=Soul Man
TTITLE1=Heroes
TTITLE2=Fly Away
TTITLE3=Last Time
TTITLE4=Love Me Two Times
TTITLE5=Mojo Workin'
TTITLE6=Suspicious Minds
EXTD=
EXTT0=
EXTT1=
EXTT2=
EXTT3=
EXTT4=
EXTT5=
EXTT6=
PLAYORDER=
